<?xml version="1.0" standalone="no"?>
<!DOCTYPE svg PUBLIC "-//W3C//DTD SVG 20010904//EN"
 "http://www.w3.org/TR/2001/REC-SVG-20010904/DTD/svg10.dtd">
<svg version="1.0" xmlns="http://www.w3.org/2000/svg"
 width="187.000000pt" height="187.000000pt" viewBox="0 0 187.000000 187.000000"
 preserveAspectRatio="xMidYMid meet">
<metadata>
Created by potrace 1.11, written by Peter Selinger 2001-2013
</metadata>
<g transform="translate(0.000000,187.000000) scale(0.100000,-0.100000)"
fill="#000000" stroke="none">
<path d="M95 1856 c-37 -17 -70 -52 -84 -89 -7 -19 -11 -242 -11 -678 0 -720
-2 -693 66 -745 l37 -29 191 -2 c105 -2 240 -3 300 -3 l108 0 -6 -27 c-4 -16
-21 -72 -37 -125 -29 -95 -31 -98 -60 -98 -33 0 -48 -22 -29 -45 18 -21 711
-23 729 -1 18 21 2 46 -30 46 -27 0 -29 4 -64 113 -19 62 -35 119 -35 125 0 9
72 12 280 13 154 1 283 2 288 4 4 1 19 5 34 9 37 11 86 68 93 108 3 18 5 326
3 685 -3 640 -3 652 -24 679 -11 15 -33 37 -48 48 -27 21 -37 21 -849 23 -670
2 -828 0 -852 -11z m1662 -63 c17 -8 36 -26 42 -41 11 -30 14 -1101 3 -1118
-4 -6 -333 -10 -870 -9 -759 0 -863 2 -866 15 -3 8 -5 256 -4 550 0 575 1 585
51 607 14 7 312 10 817 11 679 0 800 -2 827 -15z m51 -1295 c-1 -52 -5 -66
-29 -92 l-27 -31 -816 0 -816 0 -27 28 c-24 23 -28 36 -29 92 l-2 65 873 0
874 0 -1 -62z m-683 -275 c15 -49 30 -101 36 -117 5 -16 9 -32 9 -35 0 -8
-456 -8 -464 0 -3 3 -2 19 3 35 6 16 22 68 36 117 l26 87 164 0 164 0 26 -87z"/>
<path d="M166 1700 c-17 -21 -16 -498 2 -508 16 -10 584 -9 600 1 18 12 18
502 0 514 -7 4 -143 8 -301 8 -244 0 -290 -2 -301 -15z m551 -250 c-1 -174 -3
-200 -16 -201 -9 0 -119 -1 -246 -2 l-230 -1 -3 202 -2 202 248 0 249 0 0
-200z"/>
<path d="M883 1702 c-16 -17 -16 -25 -1 -40 9 -9 87 -12 290 -12 257 0 278 1
287 18 23 43 8 46 -285 46 -218 1 -280 -2 -291 -12z"/>
<path d="M1544 1707 c-19 -11 -18 -43 2 -51 9 -3 46 -6 82 -6 55 0 69 3 79 19
10 16 9 22 -3 32 -17 14 -137 19 -160 6z"/>
<path d="M882 1548 c-15 -15 -15 -23 1 -40 10 -10 53 -13 178 -12 214 2 206 1
213 20 15 39 -9 44 -198 44 -128 0 -186 -4 -194 -12z"/>
<path d="M1349 1544 c-9 -11 -10 -20 -2 -32 9 -14 32 -17 169 -17 183 -1 190
0 197 26 9 32 -24 39 -191 39 -133 0 -162 -3 -173 -16z"/>
<path d="M908 1402 c-30 -4 -44 -28 -27 -48 9 -11 66 -14 290 -14 263 0 279 1
288 19 21 38 -4 42 -270 44 -140 1 -266 1 -281 -1z"/>
<path d="M1575 1400 c-35 -4 -40 -8 -40 -30 0 -24 2 -25 82 -28 72 -2 83 -1
92 17 8 14 7 22 -2 29 -15 12 -80 18 -132 12z"/>
<path d="M882 1236 c-12 -21 -10 -36 6 -44 10 -5 97 -8 195 -8 146 1 179 4
187 16 13 20 12 27 -2 37 -20 13 -378 12 -386 -1z"/>
<path d="M1352 1234 c-13 -10 -15 -17 -6 -31 10 -16 28 -18 175 -19 90 0 170
2 177 4 6 2 12 15 12 28 0 29 12 27 -183 29 -114 1 -163 -2 -175 -11z"/>
<path d="M161 1071 c-20 -37 5 -42 220 -39 l204 3 0 25 0 25 -207 3 c-195 2
-208 1 -217 -17z"/>
<path d="M662 1077 c-9 -10 -9 -18 1 -31 10 -14 26 -16 92 -14 78 3 80 4 80
28 0 24 -2 25 -81 28 -59 2 -84 -1 -92 -11z"/>
<path d="M912 1077 c-9 -10 -9 -18 1 -31 10 -14 27 -16 107 -14 94 3 95 3 95
28 0 25 -1 25 -96 28 -72 2 -99 -1 -107 -11z"/>
<path d="M1192 1078 c-7 -7 -8 -17 -1 -30 9 -17 27 -18 259 -18 232 0 250 1
259 18 21 38 -1 42 -259 42 -172 0 -249 -3 -258 -12z"/>
<path d="M178 932 c-21 -4 -25 -47 -5 -55 11 -4 106 -3 130 2 12 2 8 39 -5 48
-14 8 -91 12 -120 5z"/>
<path d="M383 922 c-9 -9 -10 -19 -3 -31 8 -16 27 -18 211 -17 179 1 203 3
213 18 23 37 -4 42 -211 43 -151 0 -199 -3 -210 -13z"/>
<path d="M898 932 c-9 -2 -19 -10 -22 -19 -14 -36 9 -40 199 -40 195 0 218 5
197 44 -9 16 -28 18 -184 18 -95 0 -180 -1 -190 -3z"/>
<path d="M1355 927 c-20 -11 -19 -34 3 -45 18 -10 304 -14 335 -6 20 6 23 39
5 51 -17 10 -324 11 -343 0z"/>
<path d="M167 773 c-4 -3 -7 -17 -7 -30 0 -27 -19 -25 233 -25 110 -1 182 3
189 10 5 5 7 19 3 31 -6 20 -12 21 -209 21 -111 0 -206 -3 -209 -7z"/>
<path d="M661 762 c-18 -34 2 -45 82 -45 83 1 97 5 97 33 0 24 -19 30 -100 30
-57 0 -71 -3 -79 -18z"/>
<path d="M910 761 c-22 -43 -1 -46 274 -45 164 1 261 5 267 11 6 6 9 19 7 29
-3 18 -19 19 -270 22 -256 2 -268 2 -278 -17z"/>
<path d="M1537 774 c-11 -11 -8 -42 5 -50 17 -11 148 -8 160 4 5 5 8 18 6 28
-3 16 -15 19 -84 22 -44 1 -83 0 -87 -4z"/>
</g>
</svg>
